<?xml version="1.0" encoding="utf-8"?>
<svg version="1.1" id="Layer_1" xmlns="http://www.w3.org/2000/svg" xmlns:xlink="http://www.w3.org/1999/xlink" x="0px" y="0px"
	 viewBox="0 0 75 60" style="enable-background:new 0 0 75 60;" xml:space="preserve">
<style type="text/css">
	.st0{fill:#15385F;}
	.st1{fill:#FFFFFF;}
	.st2{fill:none;stroke:#FFFFFF;stroke-width:3;stroke-linecap:round;stroke-miterlimit:10;}
</style>
<path class="st0" d="M72.5,49.5H27.4L7.5,56.1l8.4-6.7H2.5c-1.3,0-2.3-1-2.3-2.3V10.3c0-1.3,1-2.3,2.3-2.3h70c1.3,0,2.3,1,2.3,2.3
	v36.9C74.8,48.4,73.8,49.5,72.5,49.5z"/>
<g>
	<path class="st1" d="M28.8,10.2h10.4c2.1,0,4,0.4,5.7,1.3c1.7,0.9,3.2,2.1,4.5,3.6c1.3,1.5,2.2,3.3,2.9,5.4c0.7,2.1,1,4.3,1,6.8
		v0.1c0,2.4-0.3,4.7-1,6.8c-0.7,2.1-1.7,3.9-2.9,5.5c-1.3,1.5-2.8,2.8-4.5,3.6c-1.7,0.9-3.7,1.3-5.7,1.3H28.8V10.2z M39.2,38.8
		c1.2,0,2-0.2,3-0.9c0.9-0.7,2.1-2.1,2.8-3c0.7-0.9,1.2-2,1.6-3.2c0.4-1.2,0.6-2.6,0.6-4.2v-0.1c0-1.5-0.2-2.9-0.6-4.2
		c-0.4-1.3-0.9-2.4-1.6-3.3c-0.7-0.9-1.8-1.9-2.6-2.7c-0.8-0.8-2-1.3-3.2-1.3h-4.5v22.9H39.2z"/>
	<path class="st2" d="M52.8,11.1c6.5,5.2,8.4,21.7,0.9,31.7"/>
	<path class="st1" d="M18.2,10.2l7.3-0.1l-0.1,34.6H20L20,37.2L11,37.1l-3.5,7.7h-6L18.2,10.2z M20,32.4l0.4-12.1l-6.3,12L20,32.4z"
		/>
	<path class="st2" d="M59.5,11.1c6.5,5.2,8.4,21.7,0.9,31.7"/>
	<path class="st2" d="M66.2,11.1c6.5,5.2,8.4,21.7,0.9,31.7"/>
</g>
</svg>
