<?xml version="1.0" encoding="utf-8"?>
<svg version="1.1" id="Layer_1" xmlns="http://www.w3.org/2000/svg" xmlns:xlink="http://www.w3.org/1999/xlink" x="0px" y="0px"
	 viewBox="0 0 35 35" style="enable-background:new 0 0 35 35;" xml:space="preserve">
<style type="text/css">
	.st0{fill:none;stroke:#15385F;stroke-width:2;stroke-linecap:round;stroke-miterlimit:10;}
	.st1{fill:#005a6a;}
</style>
<g>
	<path class="st0" d="M25.7,3.6c9.8,7.8,11.2,17.5,1.8,28.3"/>
	<path class="st0" d="M22.2,9.4c6,3.6,7.5,12.5,1.3,17.5"/>
	<path class="st0" d="M19.6,14.4c1.7,1.8,2.5,5.2-0.3,8.2"/>
	<path class="st1" d="M14.1,31.7l-5.9-5.9H3c-1.6,0-2.8-1.3-2.8-2.8v-7.2c0-1.6,1.3-2.8,2.8-2.8h5.2L14.1,7c0.8,0,1.4,0.6,1.4,1.4
		v21.9C15.5,31.1,14.9,31.7,14.1,31.7z"/>
</g>
</svg>
