<?xml version="1.0" encoding="utf-8"?>
<svg version="1.1" id="Layer_1" xmlns="http://www.w3.org/2000/svg" xmlns:xlink="http://www.w3.org/1999/xlink" x="0px" y="0px"
	 viewBox="0 0 75 60" style="enable-background:new 0 0 75 60;" xml:space="preserve">
<style type="text/css">
	.st0{fill:#15385F;}
	.st1{fill:#FFFFFF;}
	.st2{fill:none;stroke:#FFFFFF;stroke-width:4;stroke-miterlimit:10;}
	.st3{fill:none;stroke:#FFFFFF;stroke-width:2;stroke-miterlimit:10;}
	.st4{fill:none;stroke:#FFFFFF;stroke-width:3;stroke-linecap:round;stroke-miterlimit:10;}
	.st5{fill:none;stroke:#FFFFFF;stroke-width:7;stroke-linecap:round;stroke-miterlimit:10;}
	.st6{fill:none;stroke:#FFFFFF;stroke-linecap:round;stroke-miterlimit:10;}
</style>
<path class="st0" d="M71.8,53.6H3c-1.7,0-3-1.3-3-3V8.5c0-1.7,1.3-3,3-3h68.8c1.7,0,3,1.3,3,3v42.1C74.8,52.2,73.5,53.6,71.8,53.6z"
	/>
<path class="st1" d="M44.4,49.7h-18c-1.8,0-3.2-1.5-3.2-3.4V32c0-1.9,1.4-3.4,3.2-3.4h18c1.8,0,3.2,1.5,3.2,3.4v2.6l4.9-3.2l0,14.9
	l-5-2.8v2.8C47.6,48.1,46.2,49.7,44.4,49.7z"/>
<line class="st2" x1="35.4" y1="53.7" x2="35.4" y2="48"/>
<line class="st3" x1="-0.6" y1="30.8" x2="48.7" y2="10"/>
<line class="st4" x1="41.3" y1="8.2" x2="61.9" y2="23.1"/>
<line class="st5" x1="53.3" y1="17.2" x2="62" y2="23.4"/>
<path class="st6" d="M41.2,8c0,0-6.5-2.4-8.6,2.9c-1.2,2.9-1.7,5.2-2.2,7.1c-1.7,6.4-9.2,3.6-9.2,3.6s-5.9-2.3-10.1,4.3
	c-2.5,4-7.5,4-9.6,4.1"/>
</svg>
