<?xml version="1.0" encoding="utf-8"?>
<svg version="1.1" id="Layer_1" xmlns="http://www.w3.org/2000/svg" xmlns:xlink="http://www.w3.org/1999/xlink" x="0px" y="0px"
	 viewBox="0 0 75 60" style="enable-background:new 0 0 75 60;" xml:space="preserve">
<style type="text/css">
	.st0{fill:#15385F;}
	.st1{fill:#FFFFFF;}
	.st2{fill:#14828C;}
</style>
<rect x="0.3" y="6.5" class="st0" width="74.4" height="49.3"/>
<path class="st1" d="M69.9,53.4H5.1c-1.2,0-2.2-1-2.2-2.2V11.2C2.9,10,3.9,9,5.1,9h64.8c1.2,0,2.2,1,2.2,2.2v40.1
	C72.1,52.5,71.1,53.4,69.9,53.4z"/>
<g>
	<path class="st2" d="M22.9,48.4c-2.4,0-4.7-0.4-6.8-1.3s-3.9-2.1-5.4-3.6c-1.5-1.5-2.7-3.4-3.6-5.5c-0.9-2.1-1.3-4.3-1.3-6.7v-0.1
		c0-2.4,0.4-4.6,1.3-6.7c0.9-2.1,2-3.9,3.6-5.5c1.5-1.6,3.3-2.8,5.5-3.7c2.1-0.9,4.5-1.4,7-1.4c1.6,0,3,0.1,4.3,0.4
		c1.3,0.3,2.5,0.6,3.5,1c1,0.4,2,1,2.9,1.6c0.9,0.6,1.7,1.3,2.5,2.1l-4.7,5.4c-1.3-1.2-2.6-2.1-4-2.8c-1.4-0.7-2.9-1-4.5-1
		c-1.4,0-2.7,0.3-3.9,0.8C18,22,17,22.7,16.2,23.7c-0.9,1-1.5,2.1-2,3.3c-0.5,1.3-0.7,2.6-0.7,4v0.1c0,1.4,0.2,2.8,0.7,4
		c0.5,1.3,1.1,2.4,2,3.3c0.8,1,1.9,1.7,3,2.3c1.2,0.6,2.5,0.8,3.9,0.8c1.9,0,3.5-0.3,4.8-1c1.3-0.7,2.6-1.7,3.9-2.9l4.7,4.7
		c-0.9,0.9-1.7,1.7-2.7,2.5c-0.9,0.7-1.9,1.4-3,1.9c-1.1,0.5-2.3,0.9-3.6,1.2C26,48.2,24.5,48.4,22.9,48.4z"/>
	<path class="st2" d="M55.6,48.4c-2.4,0-4.7-0.4-6.8-1.3c-2.1-0.9-3.9-2.1-5.4-3.6c-1.5-1.5-2.7-3.4-3.6-5.5
		c-0.9-2.1-1.3-4.3-1.3-6.7v-0.1c0-2.4,0.4-4.6,1.3-6.7c0.9-2.1,2-3.9,3.6-5.5c1.5-1.6,3.3-2.8,5.5-3.7c2.1-0.9,4.5-1.4,7-1.4
		c1.6,0,3,0.1,4.3,0.4c1.3,0.3,2.5,0.6,3.5,1c1,0.4,2,1,2.9,1.6c0.9,0.6,1.7,1.3,2.5,2.1l-4.7,5.4c-1.3-1.2-2.6-2.1-4-2.8
		c-1.4-0.7-2.9-1-4.5-1c-1.4,0-2.7,0.3-3.9,0.8c-1.2,0.5-2.2,1.3-3.1,2.2c-0.9,1-1.5,2.1-2,3.3c-0.5,1.3-0.7,2.6-0.7,4v0.1
		c0,1.4,0.2,2.8,0.7,4c0.5,1.3,1.1,2.4,2,3.3c0.8,1,1.9,1.7,3,2.3c1.2,0.6,2.5,0.8,3.9,0.8c1.9,0,3.5-0.3,4.8-1
		c1.3-0.7,2.6-1.7,3.9-2.9l4.7,4.7c-0.9,0.9-1.7,1.7-2.7,2.5c-0.9,0.7-1.9,1.4-3,1.9c-1.1,0.5-2.3,0.9-3.6,1.2
		C58.7,48.2,57.2,48.4,55.6,48.4z"/>
</g>
</svg>
