<?xml version="1.0" encoding="utf-8"?>
<svg version="1.1" id="Layer_1" xmlns="http://www.w3.org/2000/svg" xmlns:xlink="http://www.w3.org/1999/xlink" x="0px" y="0px"
	 viewBox="0 0 35 25" style="enable-background:new 0 0 35 25;" xml:space="preserve">
<style type="text/css">
	.st0{fill:#15385F;}
	.st1{fill:#FFFFFF;}
	.st2{fill:#14828C;}
</style>
<rect x="0.1" y="1.5" class="st0" width="34.7" height="23"/>
<path class="st1" d="M31,22.4H4c-0.6,0-1-0.4-1-1V4.7c0-0.6,0.4-1,1-1H31c0.6,0,1,0.4,1,1v16.7C32,21.9,31.6,22.4,31,22.4z"/>
<g>
	<path class="st2" d="M9.4,13.5c0,1.7-0.2,2.8-0.6,3.5c-0.4,0.7-1,1-1.9,1c-0.9,0-1.6-0.4-1.9-1.1c-0.4-0.7-0.6-2-0.6-3.9
		c0-1.7,0.2-2.8,0.5-3.5c0.4-0.7,1-1,1.9-1c0.8,0,1.4,0.3,1.7,0.8c0.3,0.4,0.4,0.9,0.5,1.5C9.4,11.5,9.4,12.4,9.4,13.5z M8.1,13.7
		c0-1.6-0.1-2.7-0.2-3.2C7.7,9.9,7.4,9.6,7,9.6s-0.7,0.2-0.9,0.7c-0.1,0.5-0.2,1.5-0.2,3c0,1.4,0.1,2.3,0.2,2.9
		C6.3,16.7,6.6,17,7,17c0.4,0,0.7-0.2,0.9-0.7C8,15.8,8.1,14.9,8.1,13.7z"/>
	<path class="st2" d="M10.5,8.6h1.2l1.3,3.7c0.4,1.1,0.7,2.2,1,3.4c-0.1-0.7-0.2-1.4-0.2-2c0-0.6-0.1-1.1-0.1-1.7V8.6h1.3V18h-1.2
		l-1.4-4.2c-0.1-0.4-0.3-0.8-0.4-1.2c-0.1-0.4-0.2-0.8-0.3-1.3c0-0.1,0-0.1,0-0.2c0-0.1,0-0.2-0.1-0.3c0,0.1,0,0.2,0,0.3
		c0,0.1,0,0.1,0,0.2l0.1,1l0.1,1.2c0,0.1,0,0.1,0,0.2s0,0.2,0,0.3l0.1,4.1h-1.2V8.6z"/>
	<path class="st2" d="M20,8.6h1l2,9.4h-1.2l-0.4-1.8h-1.9L19.2,18H18L20,8.6z M21.2,15.2l-0.3-1.5c-0.2-1-0.3-2.1-0.5-3.3
		c-0.1,0.6-0.1,1.1-0.2,1.7c-0.1,0.6-0.2,1.2-0.3,1.8l-0.2,1.2H21.2z"/>
	<path class="st2" d="M23.6,8.6h1.3V18h-1.3V8.6z"/>
	<path class="st2" d="M26.2,8.6h1.7c0.7,0,1.2,0.2,1.5,0.5c0.4,0.4,0.6,1.1,0.6,1.9c0,0.7-0.1,1.2-0.3,1.6c-0.2,0.4-0.5,0.7-1,0.8
		l1.7,4.6h-1.3l-1.7-4.6V18h-1.3V8.6z M27.5,12.8c0.5,0,0.8-0.1,1-0.3c0.2-0.2,0.3-0.6,0.3-1.1c0-0.3,0-0.5-0.1-0.7
		c0-0.2-0.1-0.4-0.2-0.5c-0.1-0.1-0.2-0.2-0.4-0.3c-0.1-0.1-0.3-0.1-0.5-0.1h-0.2V12.8z"/>
</g>
</svg>
