<?xml version="1.0" encoding="utf-8"?>
<!-- Generator: Adobe Illustrator 22.1.0, SVG Export Plug-In . SVG Version: 6.00 Build 0)  -->
<svg version="1.1" id="Layer_1" xmlns="http://www.w3.org/2000/svg" xmlns:xlink="http://www.w3.org/1999/xlink" x="0px" y="0px"
	 viewBox="0 0 40.2 20" style="enable-background:new 0 0 40.2 20;" xml:space="preserve">
<style type="text/css">
	.st0{fill:#15385F;}
	.st1{fill:#FFFFFF;}
	.st2{fill:#993333;}
</style>
<rect x="0.1" y="0" class="st0" width="40" height="20"/>
<path class="st1" d="M38.4,19.6H1.9c-0.8,0-1.4-0.4-1.4-1V1.4c0-0.6,0.5-1,1.4-1h36.5c0.8,0,1.4,0.4,1.4,1v17.1
	C39.8,19.1,39.2,19.6,38.4,19.6z"/>
<g>
	<path class="st2" d="M6.7,6.7c0.6,0,1.1,0.1,1.5,0.3C8.6,7.2,9,7.5,9.3,7.9C9.6,8.2,9.9,8.6,10,9.1c0.2,0.5,0.2,1,0.2,1.5
		c0,0.5-0.1,1-0.2,1.5c-0.2,0.5-0.4,0.9-0.7,1.2C9,13.7,8.6,14,8.2,14.2c-0.4,0.2-0.9,0.3-1.5,0.3c-0.6,0-1.1-0.1-1.5-0.3
		c-0.4-0.2-0.8-0.5-1.1-0.8c-0.3-0.4-0.5-0.8-0.7-1.2c-0.2-0.5-0.2-1-0.2-1.5c0-0.5,0.1-1,0.2-1.5c0.2-0.5,0.4-0.9,0.7-1.2
		C4.4,7.5,4.8,7.2,5.2,7C5.6,6.8,6.1,6.7,6.7,6.7z M6.7,7.8C6.3,7.8,6,7.9,5.7,8C5.4,8.2,5.1,8.4,5,8.7C4.8,8.9,4.6,9.2,4.6,9.6
		c-0.1,0.3-0.1,0.7-0.1,1c0,0.4,0,0.7,0.1,1s0.2,0.6,0.4,0.9c0.2,0.3,0.4,0.5,0.7,0.6c0.3,0.2,0.6,0.2,1,0.2c0.4,0,0.7-0.1,1-0.2
		c0.3-0.2,0.5-0.4,0.7-0.6c0.2-0.3,0.3-0.6,0.4-0.9C8.9,11.3,9,11,9,10.6c0-0.4,0-0.7-0.1-1C8.7,9.2,8.6,8.9,8.4,8.7
		C8.2,8.4,8,8.2,7.7,8C7.4,7.9,7.1,7.8,6.7,7.8z"/>
	<path class="st2" d="M11.3,6.9h1.4l3.4,5.5h0V6.9h1.2v7.5H16l-3.4-5.5h0v5.5h-1.2V6.9z"/>
	<path class="st2" d="M23.6,6.9H25l2.9,7.5h-1.4l-0.7-2h-3l-0.7,2h-1.3L23.6,6.9z M23.1,11.4h2.3l-1.1-3.2h0L23.1,11.4z"/>
	<path class="st2" d="M28.5,6.9h1.3v7.5h-1.3V6.9z"/>
	<path class="st2" d="M31.3,6.9h3.6c0.8,0,1.4,0.2,1.8,0.5c0.4,0.4,0.6,0.9,0.6,1.5c0,0.4-0.1,0.6-0.2,0.9c-0.1,0.2-0.2,0.4-0.4,0.6
		c-0.1,0.1-0.3,0.2-0.4,0.3c-0.1,0.1-0.2,0.1-0.3,0.1v0c0.1,0,0.2,0,0.4,0.1c0.1,0.1,0.2,0.1,0.4,0.3c0.1,0.1,0.2,0.3,0.3,0.5
		c0.1,0.2,0.1,0.4,0.1,0.7c0,0.4,0,0.8,0.1,1.2c0.1,0.4,0.2,0.6,0.3,0.8h-1.4C36.1,14.2,36,14,36,13.8c0-0.2,0-0.4,0-0.6
		c0-0.3,0-0.6-0.1-0.9c0-0.2-0.1-0.5-0.2-0.6c-0.1-0.2-0.3-0.3-0.5-0.4c-0.2-0.1-0.4-0.1-0.7-0.1h-1.9v3.1h-1.3V6.9z M32.6,10.3h2.1
		c0.4,0,0.7-0.1,1-0.3C35.9,9.8,36,9.5,36,9.1c0-0.2,0-0.4-0.1-0.6c-0.1-0.1-0.2-0.3-0.3-0.4C35.5,8.1,35.3,8,35.2,8
		c-0.2,0-0.3,0-0.5,0h-2.1V10.3z"/>
</g>
</svg>
