<?xml version="1.0" encoding="utf-8"?>
<!-- Generator: Adobe Illustrator 22.1.0, SVG Export Plug-In . SVG Version: 6.00 Build 0)  -->
<svg version="1.1" id="Layer_1" xmlns="http://www.w3.org/2000/svg" xmlns:xlink="http://www.w3.org/1999/xlink" x="0px" y="0px"
	 viewBox="0 0 35 25" style="enable-background:new 0 0 35 25;" xml:space="preserve">
<style type="text/css">
	.st0{fill:#15385F;}
	.st1{fill:none;stroke:#FFFFFF;stroke-width:4;stroke-miterlimit:10;}
	.st2{fill:#FFFFFF;}
	.st3{fill:none;stroke:#FFFFFF;stroke-linejoin:bevel;stroke-miterlimit:10;}
</style>
<path class="st0" d="M33.8,23.6H1.1c-0.6,0-1-0.4-1-1V2.4c0-0.6,0.4-1,1-1h32.7c0.6,0,1,0.4,1,1v20.3C34.8,23.2,34.3,23.6,33.8,23.6
	z"/>
<circle class="st1" cx="8.3" cy="10.3" r="4.2"/>
<circle class="st1" cx="26.7" cy="10.3" r="4.2"/>
<circle class="st2" cx="20.6" cy="19.8" r="1.1"/>
<path class="st3" d="M5.8,14.9c0,0,7.7,6,8.9,6c2.1-0.1,3.9,0,5.9,0c1.4,0,9-6.3,9-6.3"/>
<circle class="st2" cx="14.8" cy="19.8" r="1.1"/>
</svg>
