<?xml version="1.0" encoding="utf-8"?>
<svg version="1.1" id="Layer_1" xmlns="http://www.w3.org/2000/svg" xmlns:xlink="http://www.w3.org/1999/xlink" x="0px" y="0px"
	 viewBox="0 0 75 60" style="enable-background:new 0 0 75 60;" xml:space="preserve">
<style type="text/css">
	.st0{fill:#15385F;}
</style>
<path class="st0" d="M24,40l5.3,1.7l3.7-2.5c0,0-1-6.7,2.4-8.6S39,40,39,40l-5.9,9.1l-8.8,5.6H2.4c0,0-3.1-20.5-1.9-25.8
	c0.6-2.6,1.9-10.2,2.8-14.4l7.2-6.1c0,0,2.6-0.5,1.5,2.3S7.6,17,7.6,17l-0.5,8.7l6.1-10.9c0,0,11.8-10.5,13.2-6.3
	c0.8,2.4-8.9,8.8-8.9,8.8L13.6,28l6.9-9.9c0,0,12.2-9.7,13.5-6.4S25.2,20,25.2,20l-4.9,9.7c0,0,8.6-8.3,11.4-7.6
	c1.8,0.5,6.9,4.8,3.6,7.4c-1.3,1-4.5-1.8-4.5-1.8l-5.5,6.1L24,40z"/>
<path class="st0" d="M51,19.6l-5.3-1.7L42,20.4c0,0,1,6.7-2.4,8.6S36,19.6,36,19.6l5.9-9.1l8.8-5.6h21.9c0,0,3.1,20.5,1.9,25.8
	c-0.6,2.6-1.9,10.2-2.8,14.4l-7.2,6.1c0,0-2.6,0.5-1.5-2.3c1-2.8,4.4-6.3,4.4-6.3l0.5-8.7l-6.1,10.9c0,0-11.8,10.5-13.2,6.3
	c-0.8-2.4,8.9-8.8,8.9-8.8l3.8-10.7l-6.9,9.9c0,0-12.2,9.7-13.5,6.4s8.8-8.4,8.8-8.4l4.9-9.7c0,0-8.6,8.3-11.4,7.6
	c-1.8-0.5-6.9-4.8-3.6-7.4c1.3-1,4.5,1.8,4.5,1.8l5.5-6.1L51,19.6z"/>
</svg>
